<?xml version="1.0" encoding="utf-8"?>
<!-- Generator: Adobe Illustrator 18.1.1, SVG Export Plug-In . SVG Version: 6.00 Build 0)  -->
<svg version="1.1" id="Layer_1" xmlns="http://www.w3.org/2000/svg" xmlns:xlink="http://www.w3.org/1999/xlink" x="0px" y="0px"
	 viewBox="0 0 512 512" enable-background="new 0 0 512 512" xml:space="preserve">
<g>
	<defs>
		<rect id="SVGID_1_" width="512" height="512"/>
	</defs>
	<clipPath id="SVGID_2_">
		<use xlink:href="#SVGID_1_"  overflow="visible"/>
	</clipPath>
	<path clip-path="url(#SVGID_2_)" fill="#FAC75A" d="M452,152v255c0,24.9-20.1,45-45,45H45c-24.9,0-45-20.1-45-45V152l30-32h392
		L452,152z"/>
	<path clip-path="url(#SVGID_2_)" fill="#5AA1F0" d="M452,75v77H0V75c0-24.9,20.1-45,45-45h362C431.9,30,452,50.1,452,75"/>
	<path clip-path="url(#SVGID_2_)" fill="#74D183" d="M75,90c-8.3,0-15-6.7-15-15V15c0-8.3,6.7-15,15-15s15,6.7,15,15v60
		C90,83.3,83.3,90,75,90"/>
	<path clip-path="url(#SVGID_2_)" fill="#74D183" d="M165,90c-8.3,0-15-6.7-15-15V15c0-8.3,6.7-15,15-15s15,6.7,15,15v60
		C180,83.3,173.3,90,165,90"/>
	<path clip-path="url(#SVGID_2_)" fill="#74D183" d="M287,90c-8.3,0-15-6.7-15-15V15c0-8.3,6.7-15,15-15c8.3,0,15,6.7,15,15v60
		C302,83.3,295.3,90,287,90"/>
	<path clip-path="url(#SVGID_2_)" fill="#74D183" d="M377,90c-8.3,0-15-6.7-15-15V15c0-8.3,6.7-15,15-15c8.3,0,15,6.7,15,15v60
		C392,83.3,385.3,90,377,90"/>
	<path clip-path="url(#SVGID_2_)" fill="#E6E6E6" d="M105,212H75c-8.3,0-15-6.7-15-15c0-8.3,6.7-15,15-15h30c8.3,0,15,6.7,15,15
		C120,205.3,113.3,212,105,212"/>
	<path clip-path="url(#SVGID_2_)" fill="#E6E6E6" d="M196,212h-31c-8.3,0-15-6.7-15-15c0-8.3,6.7-15,15-15h31c8.3,0,15,6.7,15,15
		C211,205.3,204.3,212,196,212"/>
	<path clip-path="url(#SVGID_2_)" fill="#E6E6E6" d="M287,212h-31c-8.3,0-15-6.7-15-15c0-8.3,6.7-15,15-15h31c8.3,0,15,6.7,15,15
		C302,205.3,295.3,212,287,212"/>
	<path clip-path="url(#SVGID_2_)" fill="#9FB2BF" d="M377,212h-30c-8.3,0-15-6.7-15-15c0-8.3,6.7-15,15-15h30c8.3,0,15,6.7,15,15
		C392,205.3,385.3,212,377,212"/>
	<path clip-path="url(#SVGID_2_)" fill="#E6E6E6" d="M105,272H75c-8.3,0-15-6.7-15-15c0-8.3,6.7-15,15-15h30c8.3,0,15,6.7,15,15
		C120,265.3,113.3,272,105,272"/>
	<path clip-path="url(#SVGID_2_)" fill="#E6E6E6" d="M196,272h-31c-8.3,0-15-6.7-15-15c0-8.3,6.7-15,15-15h31c8.3,0,15,6.7,15,15
		C211,265.3,204.3,272,196,272"/>
	<path clip-path="url(#SVGID_2_)" fill="#E6E6E6" d="M287,272h-31c-8.3,0-15-6.7-15-15c0-8.3,6.7-15,15-15h31c8.3,0,15,6.7,15,15
		C302,265.3,295.3,272,287,272"/>
	<path clip-path="url(#SVGID_2_)" fill="#9FB2BF" d="M377,272h-30c-8.3,0-15-6.7-15-15c0-8.3,6.7-15,15-15h30c8.3,0,15,6.7,15,15
		C392,265.3,385.3,272,377,272"/>
	<path clip-path="url(#SVGID_2_)" fill="#E6E6E6" d="M105,332H75c-8.3,0-15-6.7-15-15s6.7-15,15-15h30c8.3,0,15,6.7,15,15
		S113.3,332,105,332"/>
	<path clip-path="url(#SVGID_2_)" fill="#E6E6E6" d="M196,332h-31c-8.3,0-15-6.7-15-15s6.7-15,15-15h31c8.3,0,15,6.7,15,15
		S204.3,332,196,332"/>
	<path clip-path="url(#SVGID_2_)" fill="#E6E6E6" d="M287,332h-31c-8.3,0-15-6.7-15-15s6.7-15,15-15h31c8.3,0,15,6.7,15,15
		S295.3,332,287,332"/>
	<path clip-path="url(#SVGID_2_)" fill="#E6E6E6" d="M105,392H75c-8.3,0-15-6.7-15-15s6.7-15,15-15h30c8.3,0,15,6.7,15,15
		S113.3,392,105,392"/>
	<path clip-path="url(#SVGID_2_)" fill="#E6E6E6" d="M196,392h-31c-8.3,0-15-6.7-15-15s6.7-15,15-15h31c8.3,0,15,6.7,15,15
		S204.3,392,196,392"/>
	<path clip-path="url(#SVGID_2_)" fill="#E6E6E6" d="M287,392h-31c-8.3,0-15-6.7-15-15s6.7-15,15-15h31c8.3,0,15,6.7,15,15
		S295.3,392,287,392"/>
	<path clip-path="url(#SVGID_2_)" fill="#E27476" d="M407,302c-57.9,0-105,47.1-105,105s47.1,105,105,105s105-47.1,105-105
		S464.9,302,407,302"/>
	<path clip-path="url(#SVGID_2_)" fill="#5B5B5B" d="M452,407c0,8.4-6.6,15-15,15h-30c-8.4,0-15-6.6-15-15v-60c0-8.4,6.6-15,15-15
		s15,6.6,15,15v45h15C445.4,392,452,398.6,452,407"/>
</g>
</svg>
