<?xml version="1.0" encoding="utf-8"?>
<!-- Generator: Adobe Illustrator 18.1.1, SVG Export Plug-In . SVG Version: 6.00 Build 0)  -->
<svg version="1.1" id="Layer_1" xmlns="http://www.w3.org/2000/svg" xmlns:xlink="http://www.w3.org/1999/xlink" x="0px" y="0px"
	 viewBox="0 0 512 406.1" enable-background="new 0 0 512 406.1" xml:space="preserve">
<g>
	<defs>
		<rect id="SVGID_1_" width="512" height="406.1"/>
	</defs>
	<clipPath id="SVGID_2_">
		<use xlink:href="#SVGID_1_"  overflow="visible"/>
	</clipPath>
	<path clip-path="url(#SVGID_2_)" fill="#5AA1F0" d="M506.6,144.1l-76.7-84.4c-3.9-4.3-9.5-6.8-15.3-6.8h-96.8v300.1h44.1
		c0-29.2,23.7-53,53-53s53,23.7,53,53H512v-195C512,152.9,510.1,147.9,506.6,144.1"/>
	<path clip-path="url(#SVGID_2_)" fill="#FAC75A" d="M317.8,247.2H0V25.4C0,11.4,11.4,0,25.4,0h267.1c14,0,25.4,11.4,25.4,25.4
		L317.8,247.2L317.8,247.2z"/>
	<path clip-path="url(#SVGID_2_)" fill="#E6E6E6" d="M368.3,194.2H512v-36.1c0-5.2-1.9-10.1-5.4-13.9l-50.8-55.9h-87.6
		c-3.5,0-6.3,2.8-6.3,6.3v93.2C361.9,191.4,364.8,194.2,368.3,194.2"/>
	<path clip-path="url(#SVGID_2_)" fill="#5B5B5B" d="M467.9,353.1c0,29.3-23.7,53-53,53c-29.3,0-53-23.7-53-53c0-29.3,23.7-53,53-53
		C444.2,300.1,467.9,323.8,467.9,353.1"/>
	<path clip-path="url(#SVGID_2_)" fill="#5B5B5B" d="M150.1,353.1c0,29.3-23.7,53-53,53s-53-23.7-53-53c0-29.3,23.7-53,53-53
		S150.1,323.8,150.1,353.1"/>
	<path clip-path="url(#SVGID_2_)" fill="#E27476" d="M0,247.2V331c0,12.2,9.9,22.1,22.1,22.1h22.1c0-29.3,23.7-53,53-53
		s53,23.7,53,53h167.7V247.2H0z"/>
	<path clip-path="url(#SVGID_2_)" fill="#B2B2B2" d="M114.8,353.1c0,9.8-7.9,17.7-17.7,17.7s-17.7-7.9-17.7-17.7s7.9-17.7,17.7-17.7
		S114.8,343.3,114.8,353.1"/>
	<path clip-path="url(#SVGID_2_)" fill="#B2B2B2" d="M432.6,353.1c0,9.8-7.9,17.7-17.7,17.7c-9.8,0-17.7-7.9-17.7-17.7
		s7.9-17.7,17.7-17.7C424.7,335.4,432.6,343.3,432.6,353.1"/>
	<path clip-path="url(#SVGID_2_)" fill="#E27476" d="M512,247.2h-53c-4.9,0-8.8,3.9-8.8,8.8c0,4.9,3.9,8.8,8.8,8.8h53V247.2z"/>
	<path clip-path="url(#SVGID_2_)" fill="#D8AC4E" d="M132.4,176.6c4.9,0,8.8-3.9,8.8-8.8c0-4.9-4-8.8-8.8-8.8H0v17.7L132.4,176.6
		L132.4,176.6z"/>
	<path clip-path="url(#SVGID_2_)" fill="#D8AC4E" d="M97.1,132.4c4.9,0,8.8-3.9,8.8-8.8c0-4.9-4-8.8-8.8-8.8H0v17.7L97.1,132.4
		L97.1,132.4z"/>
</g>
</svg>
