<?xml version="1.0" encoding="utf-8"?>
<!-- Generator: Adobe Illustrator 18.1.1, SVG Export Plug-In . SVG Version: 6.00 Build 0)  -->
<svg version="1.1" id="Layer_1" xmlns="http://www.w3.org/2000/svg" xmlns:xlink="http://www.w3.org/1999/xlink" x="0px" y="0px"
	 viewBox="0 0 512.9 502.7" enable-background="new 0 0 512.9 502.7" xml:space="preserve">
<g>
	<defs>
		<rect id="SVGID_1_" width="512.9" height="502.7"/>
	</defs>
	<clipPath id="SVGID_2_">
		<use xlink:href="#SVGID_1_"  overflow="visible"/>
	</clipPath>
	<path clip-path="url(#SVGID_2_)" fill="#FAC75A" d="M503.5,460.1c0-16.2-10.2-27.3-19.6-34.1c-8.5-6.8-14.5-17.1-14.5-28.2V289.4
		c-9.4-91.3-102.4-148.5-163-176.6c-32.4-14.5-69.1-14.5-100.7,0c-60.6,28.2-153.6,85.3-163,176.6v108.4c0,11.1-6,21.3-14.5,28.2
		c-9.4,6.8-19.6,17.9-19.6,34.1c0,0-5.1,34.1,51.2,34.1H256h196.3C508.6,494.2,503.5,460.1,503.5,460.1"/>
	<path clip-path="url(#SVGID_2_)" fill="#FAC75A" d="M221.9,101.7l-36.7-52.1c-6-7.7-7.7-18.8-2.6-27.3c2.6-5.1,6.8-9.4,14.5-11.9
		c7.7-2.6,16.2-2.6,24.7,0.9c13.7,4.3,41.8,13.7,59.7,13.7h29c6.8,0,12.8,4.3,13.7,11.1c1.7,10.2-5.1,29.9-42.7,65.7L221.9,101.7
		L221.9,101.7z"/>
	<path clip-path="url(#SVGID_2_)" fill="#D8AC4E" d="M452.3,502.7H59.8c-23.9,0-41.8-6-51.2-17.9C-0.8,473.7,0,462.6,0,459.2
		c0-15.4,8.5-29.9,23-41c6.8-4.3,11.1-11.9,11.1-20.5V289.4c9.4-97.3,109.2-157,168.1-184.3c34.1-15.4,74.2-15.4,108.4,0
		c58.9,27.3,157.9,87,168.1,183.5v109.2c0,8.5,4.3,16.2,11.1,21.3c15.4,11.1,23,24.7,23,41c0,3.4,0.9,15.4-8.5,25.6
		C494.1,496.8,476.2,502.7,452.3,502.7 M51.2,397.8c0,13.7-6.8,26.5-17.9,35c-11.1,7.7-16.2,17.1-16.2,27.3v1.7
		c0,0-0.9,6.8,4.3,12.8c6.8,7.7,19.6,11.1,38.4,11.1h392.5c18.8,0,31.6-4.3,38.4-11.1c5.1-6,4.3-12.8,4.3-12.8v-0.9
		c0-10.2-5.1-19.6-16.2-27.3c-11.1-8.5-17.9-21.3-17.9-35V289.4c-8.5-87-102.4-143.4-157.9-169c-14.5-6-30.7-9.4-46.9-9.4
		c-16.2,0-32.4,3.4-46.9,10.2c-55.5,24.7-149.3,81.1-157.9,169"/>
	<path clip-path="url(#SVGID_2_)" fill="#D8AC4E" d="M285,110.2h-67.4l-39.3-55.5c-7.7-11.1-9.4-25.6-2.6-36.7
		c4.3-7.7,10.2-12.8,18.8-16.2c8.5-2.6,19.6-2.6,29.9,0.9c11.1,4.3,40.1,13.7,57.2,13.7h29c11.1,0,20.5,7.7,22.2,18.8
		c2.6,17.9-11.9,41.8-45.2,73.4L285,110.2z M226.2,93.1h52.1c35.8-35,38.4-51.2,37.5-56.3c0-1.7-2.6-3.4-5.1-3.4h-29
		c-19.6,0-47.8-9.4-63.1-14.5c-6-2.6-12.8-2.6-18.8-0.9c-4.3,1.7-7.7,4.3-10.2,7.7c-3.4,5.1-2.6,12.8,1.7,18.8L226.2,93.1z"/>
	<path clip-path="url(#SVGID_2_)" fill="#5AA1F0" d="M358.1,314c0,56.2-45.5,101.7-101.7,101.7c-56.2,0-101.7-45.5-101.7-101.7
		s45.5-101.7,101.7-101.7C312.6,212.3,358.1,257.8,358.1,314"/>
</g>
<text transform="matrix(1 0 0 1 214.4858 333.7847)" fill="#FFFFFF" font-family="'Noteworthy-Bold'" font-size="69.4146">LS</text>
</svg>
