<?xml version="1.0" encoding="utf-8"?>
<!-- Generator: Adobe Illustrator 18.1.1, SVG Export Plug-In . SVG Version: 6.00 Build 0)  -->
<svg version="1.1" id="Layer_1" xmlns="http://www.w3.org/2000/svg" xmlns:xlink="http://www.w3.org/1999/xlink" x="0px" y="0px"
	 viewBox="0 0 512 446.6" enable-background="new 0 0 512 446.6" xml:space="preserve">
<g>
	<defs>
		<rect id="SVGID_1_" width="512" height="446.6"/>
	</defs>
	<clipPath id="SVGID_2_">
		<use xlink:href="#SVGID_1_"  overflow="visible"/>
	</clipPath>
	<path clip-path="url(#SVGID_2_)" fill="#FAC75A" d="M430,282.6c-3,0-6,0.2-8.9,0.5l-55.9-121.2l61.4-133.2
		c4.7-10.1,0.2-22.1-9.9-26.8c-10.1-4.7-22.1-0.2-26.8,9.9L343,113.6L296,11.7c-4.7-10.1-16.6-14.5-26.8-9.9
		c-10.1,4.7-14.5,16.6-9.9,26.8l61.4,133.2l-55.9,121.3c-3.1-0.4-6.2-0.6-9.4-0.6c-45.2,0-82,36.8-82,82s36.8,82,82,82
		s82-36.8,82-82c0-27.7-13.8-52.1-34.8-67L343,210l40.2,87.3c-21.3,14.8-35.2,39.5-35.2,67.3c0,45.2,36.8,82,82,82
		c45.2,0,82-36.8,82-82S475.2,282.6,430,282.6 M255.4,406.2c-23,0-41.7-18.7-41.7-41.7c0-23,18.7-41.7,41.7-41.7
		s41.7,18.7,41.7,41.7C297.1,387.5,278.4,406.2,255.4,406.2 M430,406.2c-23,0-41.7-18.7-41.7-41.7c0-23,18.7-41.7,41.7-41.7
		c23,0,41.7,18.7,41.7,41.7C471.7,387.5,453,406.2,430,406.2"/>
	<path clip-path="url(#SVGID_2_)" fill="#5AA1F0" d="M105.8,391.2l-49.2-23.6c-6.2-3-9.2-10.3-6.3-16.6c2.9-6.3,10.4-9,16.7-6
		l56.8,27.3c6.5,3.1,14.3,0.4,17.4-6.1c3.1-6.5,0.4-14.3-6.1-17.4l-56.4-27.1c-6.2-3-9.2-10.3-6.3-16.6c2.9-6.3,10.4-9,16.7-6
		l56.8,27.3c6.5,3.1,14.3,0.4,17.4-6.1c3.1-6.5,0.4-14.3-6.1-17.4l-56.4-27.1c-6.2-3-9.2-10.3-6.3-16.6c2.9-6.3,10.4-9,16.7-6
		l56.8,27.3c6.5,3.1,14.3,0.4,17.4-6.1c3.1-6.5,0.4-14.3-6.1-17.4l-56.4-27.1c-6.2-3-9.2-10.3-6.3-16.6c2.9-6.3,10.4-9.1,16.7-6
		l56.8,27.3c6.5,3.1,14.3,0.4,17.4-6.1c3.1-6.5,0.4-14.3-6.1-17.4L144.8,184c-6.2-3-9.2-10.3-6.3-16.6c2.9-6.3,10.4-9,16.7-6
		l56.8,27.3c6.5,3.1,14.3,0.4,17.4-6.1c3.1-6.5,0.4-14.3-6.1-17.4l-56.4-27.1c-6.2-3-9.2-10.3-6.3-16.6c2.9-6.3,10.4-9,16.7-6
		l49.5,23.8c10.5,5,23.1,0.6,28.2-9.9c4.6-9.7,3-20.7-3.3-28.5c-2.5-3.1-5.6-5.6-9.4-7.5l-49.7-23.9c-27.6-13.3-60.8-1.6-74,26
		C117.1,98.2,11.6,318.1,8.1,325.6c-14,30.3-11.7,66.5,21.9,82.6c0,0,49.6,23.8,49.7,23.9c12.7,6.1,29.7,0.5,36-12.7
		C120.8,408.9,116.3,396.3,105.8,391.2"/>
</g>
</svg>
