<?xml version="1.0" encoding="utf-8"?>
<!-- Generator: Adobe Illustrator 18.1.1, SVG Export Plug-In . SVG Version: 6.00 Build 0)  -->
<svg version="1.1" id="Layer_1" xmlns="http://www.w3.org/2000/svg" xmlns:xlink="http://www.w3.org/1999/xlink" x="0px" y="0px"
	 viewBox="0 0 512.3 441.4" enable-background="new 0 0 512.3 441.4" xml:space="preserve">
<g>
	<defs>
		<rect id="SVGID_1_" width="512.3" height="441.4"/>
	</defs>
	<clipPath id="SVGID_2_">
		<use xlink:href="#SVGID_1_"  overflow="visible"/>
	</clipPath>
	<path clip-path="url(#SVGID_2_)" fill="#C44E5A" d="M493.6,223.6c-19-5.9-38.1-9.5-57.1-10.9c7.3-36.7,6.8-75.6-3.3-114.3l-5-18.9
		l-18.9,5c-22.7,6-43.8,14.9-63.2,26.2h0c-12.1-25.4-28.7-49.2-49.7-70.3L256.2,0l-40.3,40.3c-21.5,21.5-38.3,45.9-50.5,71.9
		c0.2-0.5,0.4-1.1,0.7-1.6c-19.3-11.3-40.5-20.2-63.2-26.2l-18.9-5l-5,18.9c-10.1,38.7-10.7,77.6-3.3,114.3
		c-19,1.4-38.1,5-57.1,10.9L0,229.5l5.9,18.7C41,359.3,141.3,441.4,256.1,441.4l-40.3-40.3c-1-1-1.9-2.1-2.8-3.1
		c1,1,1.9,2.1,2.9,3.1l40.3,40.3l40.2-40.3c0,0,0,0,0,0c0,0,0,0,0,0l-40.2,40.3c114.8,0,215.1-82.1,250.2-193.3l5.9-18.7
		L493.6,223.6z"/>
	<path clip-path="url(#SVGID_2_)" fill="#C96368" d="M493.6,223.6c-19-5.9-38.1-9.5-57.1-10.9c-14.5,72.9-60.4,137.3-126.8,174l0,0
		c-4.2,4.9-8.6,9.8-13.2,14.4l-40.3,40.3c114.8,0,215.1-82.1,250.2-193.3l5.9-18.7L493.6,223.6z"/>
	<path clip-path="url(#SVGID_2_)" fill="#E27476" d="M79.1,98.4l5-18.9l18.9,5c22.7,6,43.8,14.9,63.2,26.2
		c-42.6,89.2-30.5,198,36.4,276C102.7,331.5,48.9,213.8,79.1,98.4"/>
	<path clip-path="url(#SVGID_2_)" fill="#C96368" d="M18.7,223.6c19-5.9,38.1-9.5,57.1-10.9c14.5,72.9,60.4,137.3,126.8,174
		c0,0,0,0,0,0c4.2,4.9,8.6,9.8,13.2,14.4l40.2,40.3C141.3,441.4,41,359.3,5.9,248.1L0,229.5L18.7,223.6z"/>
	<path clip-path="url(#SVGID_2_)" fill="#E27476" d="M432.5,98.4l-5-18.9l-18.9,5c-22.7,6-43.8,14.9-63.2,26.2
		c42.6,89.2,30.5,198-36.4,276C408.9,331.5,462.7,213.8,432.5,98.4"/>
	<path clip-path="url(#SVGID_2_)" fill="#F48288" d="M256.2,0l40.3,40.3c99.5,99.7,99.5,261,0,360.7l-40.3,40.3L215.9,401
		c-99.5-99.7-99.5-261,0-360.7L256.2,0z"/>
</g>
</svg>
