<?xml version="1.0" encoding="utf-8"?>
<!-- Generator: Adobe Illustrator 18.1.1, SVG Export Plug-In . SVG Version: 6.00 Build 0)  -->
<svg version="1.1" id="Layer_1" xmlns="http://www.w3.org/2000/svg" xmlns:xlink="http://www.w3.org/1999/xlink" x="0px" y="0px"
	 viewBox="0 0 512 512" enable-background="new 0 0 512 512" xml:space="preserve">
<rect x="107.4" y="112.5" fill="#E27476" width="297" height="72"/>
<rect x="219.9" fill="#E27476" width="72" height="297"/>
<g>
	<defs>
		<rect id="SVGID_1_" width="512" height="512"/>
	</defs>
	<clipPath id="SVGID_2_">
		<use xlink:href="#SVGID_1_"  overflow="visible"/>
	</clipPath>
	<path clip-path="url(#SVGID_2_)" fill="#5AA1F0" d="M294.4,512c0,0-38.8-75.6,35.8-128s95.4-81.4,95.4-81.4s41.7-11.6,23.9,23.3
		c-12,22.3-28.2,42-47.7,58.2c0,0,56.7-11.6,71.6-58.2c14.9-46.5,0-72.7,35.8-81.4c0,0,17.9,87.3-35.8,139.6s-116.3,72.7-119.3,128
		H294.4z"/>
	<path clip-path="url(#SVGID_2_)" fill="#5AA1F0" d="M217.6,512c0,0,38.8-75.6-35.8-128s-95.4-81.4-95.4-81.4s-41.7-11.6-23.9,23.3
		c12,22.3,28.2,42,47.7,58.2c0,0-56.7-11.6-71.6-58.2s0-72.7-35.8-81.4c0,0-17.9,87.3,35.8,139.6s116.3,72.7,119.3,128H217.6z"/>
</g>
</svg>
